<mxfile host="app.diagrams.net" modified="2021-01-23T16:23:22.769Z" agent="5.0 (Windows)" etag="6a7RyNnmXCaRO0I5LRbQ" version="14.2.7" type="github">
  <diagram id="Mwsu2u783ob0jfeZUq9d" name="Page-1">
    <mxGraphModel dx="854" dy="404" grid="1" gridSize="10" guides="1" tooltips="1" connect="1" arrows="1" fold="1" page="1" pageScale="1" pageWidth="827" pageHeight="1169" math="0" shadow="0">
      <root>
        <mxCell id="0" />
        <mxCell id="1" parent="0" />
        <mxCell id="CFGpU1DCP03EURR3IezH-2" value="&lt;div&gt;AWS&lt;/div&gt;(hosten AAS)" style="shape=umlFrame;whiteSpace=wrap;html=1;width=70;height=50;" vertex="1" parent="1">
          <mxGeometry x="190" y="20" width="300" height="200" as="geometry" />
        </mxCell>
        <mxCell id="CFGpU1DCP03EURR3IezH-3" value="Server&#xa;(AAS&#xa;Repository)" style="shape=module;align=left;spacingLeft=20;align=center;verticalAlign=top;" vertex="1" parent="1">
          <mxGeometry x="290" y="30" width="100" height="50" as="geometry" />
        </mxCell>
        <mxCell id="CFGpU1DCP03EURR3IezH-5" style="edgeStyle=orthogonalEdgeStyle;rounded=0;orthogonalLoop=1;jettySize=auto;html=1;exitX=0.5;exitY=0;exitDx=0;exitDy=0;exitPerimeter=0;" edge="1" parent="1" source="CFGpU1DCP03EURR3IezH-4" target="CFGpU1DCP03EURR3IezH-3">
          <mxGeometry relative="1" as="geometry" />
        </mxCell>
        <mxCell id="CFGpU1DCP03EURR3IezH-4" value="ServerSerttings.json" style="shape=note;size=20;whiteSpace=wrap;html=1;" vertex="1" parent="1">
          <mxGeometry x="200" y="150" width="160" height="30" as="geometry" />
        </mxCell>
        <mxCell id="CFGpU1DCP03EURR3IezH-7" value="&lt;div&gt;PC&lt;/div&gt;&lt;div&gt;(erstellen&lt;/div&gt;&lt;div&gt;AAS&lt;br&gt;&lt;/div&gt;" style="shape=umlFrame;whiteSpace=wrap;html=1;width=70;height=50;" vertex="1" parent="1">
          <mxGeometry x="230" y="310" width="300" height="200" as="geometry" />
        </mxCell>
        <mxCell id="CFGpU1DCP03EURR3IezH-11" value="" style="edgeStyle=orthogonalEdgeStyle;rounded=0;orthogonalLoop=1;jettySize=auto;html=1;" edge="1" parent="1" source="CFGpU1DCP03EURR3IezH-10" target="CFGpU1DCP03EURR3IezH-3">
          <mxGeometry relative="1" as="geometry" />
        </mxCell>
        <mxCell id="CFGpU1DCP03EURR3IezH-12" value="AAS" style="edgeLabel;html=1;align=center;verticalAlign=middle;resizable=0;points=[];" vertex="1" connectable="0" parent="CFGpU1DCP03EURR3IezH-11">
          <mxGeometry x="-0.3481" y="3" relative="1" as="geometry">
            <mxPoint as="offset" />
          </mxGeometry>
        </mxCell>
        <mxCell id="CFGpU1DCP03EURR3IezH-10" value="Importer&lt;br&gt;(für AASX)" style="html=1;" vertex="1" parent="1">
          <mxGeometry x="370" y="130" width="110" height="50" as="geometry" />
        </mxCell>
        <mxCell id="CFGpU1DCP03EURR3IezH-14" style="edgeStyle=orthogonalEdgeStyle;rounded=0;orthogonalLoop=1;jettySize=auto;html=1;exitX=0.5;exitY=0;exitDx=0;exitDy=0;entryX=0.5;entryY=1;entryDx=0;entryDy=0;" edge="1" parent="1" source="CFGpU1DCP03EURR3IezH-15" target="CFGpU1DCP03EURR3IezH-10">
          <mxGeometry relative="1" as="geometry" />
        </mxCell>
        <mxCell id="CFGpU1DCP03EURR3IezH-13" value="Exporter (für AASX)" style="html=1;" vertex="1" parent="1">
          <mxGeometry x="370" y="330" width="110" height="50" as="geometry" />
        </mxCell>
        <mxCell id="CFGpU1DCP03EURR3IezH-15" value="&lt;div&gt;Transporter (Skript &lt;br&gt;&lt;/div&gt;&lt;div&gt;oder Programm)&lt;/div&gt;" style="html=1;" vertex="1" parent="1">
          <mxGeometry x="365" y="235" width="110" height="50" as="geometry" />
        </mxCell>
        <mxCell id="CFGpU1DCP03EURR3IezH-16" style="edgeStyle=orthogonalEdgeStyle;rounded=0;orthogonalLoop=1;jettySize=auto;html=1;exitX=0.5;exitY=0;exitDx=0;exitDy=0;entryX=0.5;entryY=1;entryDx=0;entryDy=0;" edge="1" parent="1" source="CFGpU1DCP03EURR3IezH-13" target="CFGpU1DCP03EURR3IezH-15">
          <mxGeometry relative="1" as="geometry">
            <mxPoint x="425" y="330" as="sourcePoint" />
            <mxPoint x="425" y="180" as="targetPoint" />
          </mxGeometry>
        </mxCell>
      </root>
    </mxGraphModel>
  </diagram>
</mxfile>
